# xmcd CD database file
#
# Track frame offsets:
#	150
#	16380
#	31328
#	46903
#	70670
#	82508
#	97993
#	113788
#	136618
#	156119
#
# Disc length: 2379 seconds
#
# Revision: 0
# Processed by: cddbd v1.5.1PL2 Copyright (c) Steve Scherf et al.
# Submitted via: CDex 1.50
#
DISCID=6609490a
DTITLE=B. B. King - Everyday I have the Blues
DYEAR=2004
DGENRE=Blues
TTITLE0=Other Night Blues
TTITLE1=B.B. Boogie
TTITLE2=Walkin' and Cryin'
TTITLE3=You've Done Lost Your Good Thing Now
TTITLE4=Payin' The Cost To The Boss
TTITLE5=How Blue Can You Get
TTITLE6=The Letter
TTITLE7=Everyday I Have The Blues
TTITLE8=Sweet Sixteen
TTITLE9=The Thrill Is Gone
EXTD=YEAR: 2004
EXTT0=
EXTT1=
EXTT2=
EXTT3=
EXTT4=
EXTT5=
EXTT6=
EXTT7=
EXTT8=
EXTT9=
PLAYORDER=
